<?xml version="1.0" encoding="UTF-8" standalone="no"?>
<!-- Created with Inkscape (http://www.inkscape.org/) -->

<svg
   version="1.1"
   id="svg2"
   width="16"
   height="16"
   viewBox="0 0 16 16"
   xmlns="http://www.w3.org/2000/svg"
   xmlns:svg="http://www.w3.org/2000/svg">
  <defs
     id="defs6" />
  <g
     id="g8">
    <g
       id="g12"
       transform="matrix(0.13689703,0,0,0.10880724,0.02962459,-0.15751723)">
      <path
         style="fill:#d8880b;fill-opacity:1;stroke-width:0.32"
         d="m 71.152954,147.42866 c -0.57394,-0.32468 -5.7005,-5.81326 -7.952954,-8.51458 -2.386576,-2.86216 -4.153613,-4.49611 -5.070941,-4.68902 -1.424067,-0.29947 -4.665328,-1.39502 -5.633517,-1.90414 -1.476988,-0.77667 -4.31391,-3.41286 -5.5719,-5.17764 -2.006992,-2.81554 -2.748935,-5.38975 -2.756893,-9.5652 -0.01056,-5.54024 0.983849,-8.18595 4.411072,-11.73606 2.456121,-2.54419 4.724157,-3.90762 7.859929,-4.72499 2.137975,-0.55729 4.077575,-0.59644 30.68225,-0.61925 l 28.4,-0.0244 v 3.4554 3.4554 l -28.4,-0.008 -28.4,-0.008 -2.08,1.06649 c -2.604013,1.33516 -2.982141,1.67606 -4.291619,3.86911 -2.190903,3.66919 -2.152621,7.00618 0.120659,10.5177 1.79743,2.77647 4.258483,4.18168 8.226208,4.69699 0.910387,0.11823 1.862182,0.38299 2.115098,0.58835 0.500723,0.40656 4.480902,4.94399 6.362784,7.2536 1.731926,2.12558 3.074099,3.51977 3.388441,3.51977 0.152707,0 1.924826,-1.90124 3.938039,-4.22498 2.013216,-2.32374 4.282115,-4.87974 5.042,-5.68 l 1.381609,-1.45502 16.308951,-0.0885 16.30895,-0.0885 -0.0906,3.60849 -0.0906,3.6085 -14.08,0.0175 c -7.744,0.01 -14.39607,0.0456 -14.782378,0.08 -0.473347,0.0421 -2.491747,2.09879 -6.189929,6.30727 -3.018151,3.43462 -5.752615,6.38662 -6.076586,6.56 -0.793037,0.42443 -2.237747,0.37932 -3.078153,-0.0961 z M 78.56,124.4139 c -2.623821,-0.91716 -4.633747,-3.80334 -4.633747,-6.6539 0,-0.84558 0.314726,-2.11592 0.762438,-3.07745 2.442922,-5.24653 9.779696,-5.24653 12.222618,0 2.631805,5.65219 -2.595507,11.74331 -8.351309,9.73135 z M 83.209613,122.8 c 2.301302,-1.16258 3.528125,-3.61937 3.058208,-6.12424 C 85.813962,114.25647 83.175248,112 80.8,112 c -0.541414,0 -1.625741,0.324 -2.409613,0.72 -4.19928,2.12141 -4.19928,7.95859 0,10.08 0.783872,0.396 1.868199,0.72 2.409613,0.72 0.541414,0 1.625741,-0.324 2.409613,-0.72 z M 100.32,124.4139 c -2.623821,-0.91716 -4.633747,-3.80334 -4.633747,-6.6539 0,-0.84558 0.314726,-2.11592 0.762438,-3.07745 2.442922,-5.24653 9.779699,-5.24653 12.222619,0 2.6318,5.65219 -2.59551,11.74331 -8.35131,9.73135 z m 4.64961,-1.6139 c 2.30131,-1.16258 3.52813,-3.61937 3.05821,-6.12424 C 107.57396,114.25647 104.93525,112 102.56,112 c -0.54141,0 -1.62574,0.324 -2.40961,0.72 -4.199283,2.12141 -4.199283,7.95859 0,10.08 0.78387,0.396 1.8682,0.72 2.40961,0.72 0.54141,0 1.62574,-0.324 2.40961,-0.72 z M 48.8,97.921501 C 48.117142,97.624957 47.164461,96.595773 38.447056,86.737181 37.084429,85.196173 36.541914,84.8 35.79431,84.8 35.277418,84.8 34.32024,84.532432 33.667251,84.205408 33.014262,83.878381 32.048,83.508189 31.52,83.382755 28.207846,82.595904 23.648129,77.68353 22.439542,73.6 22.205137,72.808 21.884347,71.829226 21.726676,71.424944 21.569004,71.020662 21.44,69.424445 21.44,67.877792 c 0,-4.835485 1.577583,-8.585622 5.042384,-11.986454 2.807553,-2.755719 4.399053,-3.704653 7.429862,-4.430061 C 36.163789,50.922381 38.8892,50.884832 75.92,50.882496 l 39.6,-0.0025 v 3.515107 3.515107 L 75.743162,57.99511 35.966323,58.08 33.814851,59.172093 c -1.769574,0.898243 -2.372716,1.423411 -3.397889,2.958621 -1.671689,2.503372 -2.046847,3.775385 -1.864624,6.322195 0.157235,2.197565 0.321697,2.6168 2.085912,5.317248 1.323773,2.026272 4.145142,3.565408 7.42919,4.052832 l 2.216195,0.328931 3.618183,4.194445 c 1.99,2.306947 4.233398,4.846765 4.985328,5.644041 1.246675,1.321856 1.404192,1.401181 1.787526,0.900196 1.92023,-2.509575 9.403261,-10.596903 10.023152,-10.832586 C 61.159366,77.882538 72.591338,77.76 88.500832,77.76 H 115.52 v 3.52 3.52 l -2,0.04486 c -1.1,0.02467 -12.76042,0.06068 -25.912048,0.08 L 63.695901,84.96 62.807952,85.938694 c -0.488374,0.538282 -2.877171,3.235082 -5.308435,5.992887 -2.431267,2.757808 -4.790688,5.305395 -5.243155,5.661305 C 51.404707,98.262797 49.912586,98.404662 48.8,97.921501 Z M 99.36,74.913325 c -5.457075,-2.526544 -5.313069,-10.660992 0.229722,-12.976349 4.582678,-1.914294 9.516228,1.477837 9.516228,6.543024 0,5.171763 -5.141,8.565347 -9.74595,6.433325 z m 5.80909,-1.663667 c 1.61034,-0.995242 2.50024,-2.692896 2.50024,-4.769658 0,-6.84024 -9.620799,-7.66432 -10.868517,-0.930954 -0.467763,2.524317 1.369264,5.624474 3.761237,6.347431 1.37973,0.417014 3.3284,0.143427 4.60704,-0.646819 z M 55.52,74.593325 c -5.457075,-2.526544 -5.313069,-10.660992 0.229722,-12.976349 4.582681,-1.914294 9.516224,1.477837 9.516224,6.543024 0,5.171763 -5.140996,8.565347 -9.745946,6.433325 z m 5.809094,-1.663667 c 1.610333,-0.995242 2.50024,-2.692896 2.50024,-4.769658 0,-6.84024 -9.620803,-7.66432 -10.868521,-0.930954 -0.467763,2.524317 1.369264,5.624474 3.761235,6.347431 1.379731,0.417014 3.328403,0.143427 4.607046,-0.646819 z M 77.28,74.593325 c -5.457075,-2.526544 -5.313069,-10.660992 0.229722,-12.976349 4.582681,-1.914294 9.516224,1.477837 9.516224,6.543024 0,5.171763 -5.140996,8.565347 -9.745946,6.433325 z m 5.809094,-1.663667 c 1.610333,-0.995242 2.50024,-2.692896 2.50024,-4.769658 0,-6.84024 -9.620803,-7.66432 -10.868521,-0.930954 -0.467763,2.524317 1.369264,5.624474 3.761235,6.347431 1.379731,0.417014 3.328403,0.143427 4.607046,-0.646819 z M 27.632952,49.828659 C 27.059013,49.503984 21.932456,44.015398 19.68,41.314083 17.293425,38.45192 15.526388,36.817971 14.60906,36.625062 13.184991,36.325594 9.9437306,35.230038 8.9755418,34.720918 7.4985533,33.944246 4.661631,31.30806 3.4036419,29.543276 1.3966486,26.727743 0.65470618,24.153532 0.64674947,19.97808 0.636192,14.437839 1.6305991,11.792128 5.0578221,8.2420163 7.5132294,5.6985667 9.7808269,4.335096 12.917749,3.5159667 15.085541,2.9499014 17.305162,2.9188953 57.17575,2.8977227 c 26.875636,-0.014272 42.801754,0.094858 44.2719,0.3033631 1.61191,0.2286099 2.84148,0.6452566 4.12612,1.3981632 2.55858,1.4995404 4.32971,2.8209436 5.24075,3.9100044 1.30162,1.5559466 3.06014,4.4740266 3.2842,5.4497656 0.11632,0.506539 0.42245,1.568981 0.6803,2.360981 1.30285,4.001867 -0.32809,10.473613 -3.65674,14.510358 -1.31368,1.593124 -4.90854,4.100567 -6.84637,4.775386 -4.04208,1.407597 -4.807996,1.438704 -32.91591,1.336909 -14.696,-0.05322 -27.26375,-0.02179 -27.92833,0.06982 -1.10136,0.151843 -1.691843,0.716822 -6.669929,6.381817 -3.003879,3.418372 -5.726663,6.357082 -6.050632,6.530464 -0.793039,0.424423 -2.237748,0.379319 -3.078157,-0.0961 z M 32.97961,37.055018 c 2.013216,-2.323738 4.28215,-4.879738 5.042076,-5.679999 L 39.40337,29.92 70.341686,29.76 101.28,29.6 l 1.52433,-0.85696 c 2.26375,-1.272657 3.39639,-2.444836 4.42844,-4.58304 1.1935,-2.472694 1.28197,-5.576065 0.23683,-8.307189 -0.79583,-2.079623 -3.05916,-4.34127 -5.3896,-5.385597 C 100.66027,9.8309965 100.03878,9.8215491 57.92,9.7959158 L 15.2,9.7699168 13.12,10.835438 c -2.6036,1.333746 -2.981924,1.674738 -4.2916202,3.868145 -2.1909011,3.669199 -2.1526188,7.006183 0.1206602,10.517699 1.797431,2.776477 4.258482,4.181685 8.226209,4.696991 0.910387,0.118236 1.862181,0.382994 2.115097,0.588351 0.500723,0.406564 4.480902,4.943987 6.362783,7.253606 1.731927,2.125578 3.074099,3.51977 3.388443,3.51977 0.152708,0 1.924825,-1.901242 3.938038,-4.224982 z M 78.88,27.133903 C 76.256179,26.21674 74.246253,23.330556 74.246253,20.48 c 0,-0.845584 0.314726,-2.115921 0.762438,-3.07745 2.442922,-5.246533 9.779696,-5.246533 12.222618,0 2.631805,5.652189 -2.595507,11.743307 -8.351309,9.731353 z M 83.529613,25.52 c 0.783872,-0.396 1.746877,-1.204092 2.140013,-1.795761 1.953913,-2.940641 0.980809,-6.707648 -2.140013,-8.284239 -1.800064,-0.909364 -3.019162,-0.909364 -4.819226,0 -4.19928,2.121412 -4.19928,7.958588 0,10.08 0.783872,0.396 1.868199,0.72 2.409613,0.72 0.541414,0 1.625741,-0.324 2.409613,-0.72 z M 35.04,26.813903 c -1.675658,-0.585729 -3.084994,-1.887725 -3.871309,-3.576453 -0.982528,-2.110125 -0.982528,-4.044775 0,-6.1549 2.442922,-5.246533 9.779696,-5.246533 12.222618,0 2.631805,5.652189 -2.595507,11.743307 -8.351309,9.731353 z M 39.689613,25.2 c 4.19928,-2.121412 4.19928,-7.958588 0,-10.08 -1.800064,-0.909364 -3.019162,-0.909364 -4.819226,0 -4.199281,2.121412 -4.199281,7.958588 0,10.08 0.783872,0.396 1.868199,0.72 2.409613,0.72 0.541414,0 1.625741,-0.324 2.409613,-0.72 z M 56.8,26.813903 C 54.176179,25.89674 52.166253,23.010556 52.166253,20.16 c 0,-1.887056 1.229891,-4.495711 2.599312,-5.513257 3.680048,-2.734453 8.505277,-1.602774 10.385744,2.435807 C 67.783114,22.734739 62.555802,28.825857 56.8,26.813903 Z M 61.449613,25.2 c 4.19928,-2.121412 4.19928,-7.958588 0,-10.08 -1.800064,-0.909364 -3.019162,-0.909364 -4.819226,0 -4.19928,2.121412 -4.19928,7.958588 0,10.08 0.783872,0.396 1.868199,0.72 2.409613,0.72 0.541414,0 1.625741,-0.324 2.409613,-0.72 z"
         id="path16" />
      <path
         style="fill:#fbb640;fill-opacity:1;stroke-width:0.32"
         d="m 71.466035,147.44168 c -0.38168,-0.22092 -1.53368,-1.32979 -2.56,-2.46413 -1.02632,-1.13435 -2.461686,-2.71835 -3.189702,-3.52 -0.728019,-0.80166 -1.736019,-1.95301 -2.24,-2.55856 -2.59208,-3.11449 -4.4084,-4.81899 -5.135139,-4.81899 -1.209226,0 -4.595834,-1.23971 -6.341194,-2.32128 -2.562253,-1.58778 -4.87679,-4.23816 -6.35639,-7.27872 l -1.32361,-2.72 0.0019,-4.48 0.0019,-4.48 1.332054,-2.56 c 2.243664,-4.31196 5.919101,-7.41716 10.663892,-9.00939 1.650288,-0.55379 3.550313,-0.5963 30.48,-0.68195 l 28.720004,-0.0913 v 3.37134 3.37134 l -27.920004,0.002 c -18.854109,0.001 -28.335629,0.11321 -29.2,0.34493 -3.333639,0.89368 -6.145831,3.57727 -7.247213,6.91577 -0.757127,2.29501 -0.747987,3.70623 0.03882,5.9931 1.432854,4.16467 3.806048,6.05832 8.990205,7.17356 l 2.523728,0.54292 2.915849,3.35396 c 1.603719,1.84469 3.704272,4.25397 4.667898,5.35397 1.731136,1.97614 2.706857,2.44579 3.214816,1.54743 0.140745,-0.24892 0.836483,-1.07692 1.546083,-1.84 0.709597,-0.76309 2.280246,-2.53943 3.49033,-3.94743 1.210083,-1.408 2.693411,-3.064 3.296288,-3.68 l 1.096134,-1.12 16.293533,-0.0885 16.293533,-0.0885 v 3.31678 3.31678 l -13.84,-0.089 c -7.612,-0.0489 -14.316196,-0.008 -14.898212,0.0907 -0.889929,0.15114 -1.911398,1.15311 -6.423254,6.30068 -2.950771,3.36654 -5.584301,6.30012 -5.852285,6.51907 -0.745645,0.60923 -2.266985,0.77115 -3.040214,0.32358 z m 7.432371,-23.04111 c -1.917116,-0.50645 -4.14326,-2.89321 -4.643523,-4.97853 -0.609165,-2.53928 -0.01635,-4.57104 1.889879,-6.47728 2.841494,-2.84149 6.472528,-2.83794 9.319577,0.009 1.896592,1.89659 2.488855,3.93343 1.880778,6.46817 -0.533235,2.22279 -2.705639,4.46068 -4.85568,5.00207 -1.709053,0.43034 -1.877136,0.42924 -3.591031,-0.0235 z m 4.802743,-1.67605 c 3.566925,-2.09035 3.566925,-7.83869 0,-9.92904 C 79.854349,110.5411 75.2,113.25916 75.2,117.76 c 0,4.50507 4.65073,7.22102 8.501149,4.96452 z m 16.957261,1.67605 c -1.91712,-0.50645 -4.143264,-2.89321 -4.643527,-4.97853 -0.609165,-2.53928 -0.01635,-4.57104 1.889879,-6.47728 2.841498,-2.84149 6.472528,-2.83794 9.319578,0.009 1.89659,1.89659 2.48885,3.93343 1.88078,6.46817 -0.53324,2.22279 -2.70564,4.46068 -4.85568,5.00207 -1.70906,0.43034 -1.87714,0.42924 -3.59103,-0.0235 z m 4.80274,-1.67605 c 3.56692,-2.09035 3.56692,-7.83869 0,-9.92904 -3.8468,-2.25438 -8.50115,0.46368 -8.50115,4.96452 0,4.50507 4.65073,7.22102 8.50115,4.96452 z M 48.916653,97.825568 C 48.191418,97.494 45.449581,94.53143 38.248925,86.29905 36.848794,84.698301 36.515037,84.48 35.467811,84.48 34.81329,84.48 34.196518,84.348531 34.09721,84.187843 33.997901,84.027158 33.352624,83.800397 32.663264,83.68393 30.233577,83.273437 26.117071,79.993158 24.122463,76.878102 22.336986,74.089658 21.76,71.885053 21.76,67.85137 c 0,-2.77602 0.146686,-3.955754 0.687605,-5.530096 1.726475,-5.0249 5.532367,-8.730676 10.992395,-10.703236 1.50576,-0.54399 3.97017,-0.583241 41.84,-0.666355 l 40.24,-0.08832 V 54.231683 57.6 l -2,0.04224 c -1.1,0.02323 -18.933232,0.05924 -39.629405,0.08 L 36.26119,57.76 33.890595,58.966774 c -2.814484,1.432743 -4.361935,3.365904 -5.259592,6.57058 -0.492146,1.756982 -0.512884,2.252598 -0.160678,3.84 1.066491,4.8067 4.089115,7.632092 8.989435,8.402857 2.984106,0.469367 2.95736,0.454234 4.646634,2.628557 2.785721,3.585597 7.643264,8.870426 8.133606,8.849069 0.264,-0.01149 1.91783,-1.739463 3.675181,-3.839917 1.757347,-2.100454 3.971721,-4.646762 4.920829,-5.658464 L 60.561661,77.92 88.040832,77.91872 115.52,77.91744 v 3.237382 3.237383 l -2.96,0.174214 c -1.628,0.09582 -12.813005,0.145184 -24.855565,0.109712 -12.04256,-0.03547 -22.412429,0.01386 -23.04415,0.109629 -1.21105,0.1836 -2.222698,1.208534 -9.440989,9.564979 -3.381968,3.915226 -4.269216,4.404375 -6.302643,3.47472 z M 99.204941,74.654298 C 96.693718,73.334198 95.52,71.375568 95.52,68.505094 c 0,-2.719648 1.088749,-4.724736 3.254749,-5.994096 3.292521,-1.929548 7.218671,-0.959516 9.220311,2.278058 0.8173,1.321946 0.96494,1.882851 0.96494,3.66585 0,2.719648 -1.08875,4.724736 -3.25475,5.994096 -2.21931,1.300604 -4.29217,1.36607 -6.500309,0.205296 z m 6.008329,-1.271149 c 5.11823,-3.79113 1.94891,-11.687799 -4.22597,-10.529383 -2.217873,0.416074 -4.323918,3.112279 -4.340273,5.556512 -0.01424,2.129677 1.475117,4.526423 3.352973,5.395728 1.32797,0.614752 4.11796,0.388448 5.21327,-0.422857 z M 55.364941,74.334298 C 52.853718,73.014198 51.68,71.055568 51.68,68.185094 c 0,-2.719648 1.088749,-4.724736 3.254749,-5.994096 3.292525,-1.929548 7.218672,-0.959516 9.22031,2.278058 0.817296,1.321946 0.964941,1.882851 0.964941,3.66585 0,2.719648 -1.088749,4.724736 -3.254749,5.994096 -2.219315,1.300604 -4.292166,1.36607 -6.50031,0.205296 z m 6.008329,-1.271149 c 5.118234,-3.79113 1.948906,-11.687799 -4.225968,-10.529383 -2.217875,0.416074 -4.32392,3.112279 -4.340275,5.556512 -0.01424,2.129677 1.475117,4.526423 3.352973,5.395728 1.327968,0.614752 4.117962,0.388448 5.21327,-0.422857 z m 15.751671,1.271149 C 74.613718,73.014198 73.44,71.055568 73.44,68.185094 c 0,-2.719648 1.088749,-4.724736 3.254749,-5.994096 3.292525,-1.929548 7.218672,-0.959516 9.22031,2.278058 0.817296,1.321946 0.964941,1.882851 0.964941,3.66585 0,2.719648 -1.088749,4.724736 -3.254749,5.994096 -2.219315,1.300604 -4.292166,1.36607 -6.50031,0.205296 z m 6.008329,-1.271149 c 5.118234,-3.79113 1.948906,-11.687799 -4.225968,-10.529383 -2.217875,0.416074 -4.32392,3.112279 -4.340275,5.556512 -0.01424,2.129677 1.475117,4.526423 3.352973,5.395728 1.327968,0.614752 4.117962,0.388448 5.21327,-0.422857 z M 27.946036,49.84168 c -0.381681,-0.220925 -1.533681,-1.329786 -2.56,-2.464134 -1.02632,-1.134349 -2.461687,-2.718349 -3.189705,-3.52 -0.728017,-0.801652 -1.736017,-1.953002 -2.24,-2.558557 C 17.364252,38.184496 15.547933,36.48 14.821195,36.48 13.611968,36.48 10.22536,35.240288 8.48,34.15872 5.9177472,32.570944 3.6032093,29.920559 2.1236093,26.88 L 0.8,24.16 0.8020288,19.68 0.8040576,15.2 2.1361125,12.64 C 4.4269661,8.2373347 8.2288608,5.0712979 12.96,3.6263795 14.781276,3.070151 17.119335,3.04 58.430842,3.04 c 31.999344,0 43.669978,0.096296 43.999998,0.3630486 0.24704,0.1996768 0.91716,0.4631184 1.48916,0.585426 0.572,0.1223072 1.04,0.3393244 1.04,0.4822604 0,0.142936 0.3875,0.3571399 0.86111,0.4760084 1.0467,0.2627056 3.70768,2.3400876 5.06226,3.9520124 2.06257,2.4544452 3.0478,4.5069062 3.70115,7.7103632 0.63189,3.09823 0.63191,3.123453 0.003,6.366353 -0.52758,2.721591 -0.86106,3.610926 -2.03243,5.420164 -1.75972,2.717977 -3.04468,4.006089 -5.67536,5.689292 -4.18757,2.679354 -3.6419,2.640326 -35.520003,2.540285 -14.872,-0.04667 -27.516195,-0.0089 -28.098211,0.08399 -0.895818,0.142941 -1.881543,1.108189 -6.423255,6.289824 -2.950771,3.366535 -5.584302,6.300116 -5.852286,6.519069 -0.745642,0.609223 -2.266983,0.771143 -3.040213,0.323581 z m 2.038063,-9.014259 c 0.140745,-0.248919 0.836482,-1.076919 1.546082,-1.84 0.709598,-0.763082 2.280248,-2.539421 3.490331,-3.947421 1.210083,-1.408 2.693424,-3.064 3.296317,-3.68 l 1.096166,-1.12 30.613504,-0.16 30.613501,-0.16 1.83552,-0.860246 c 2.37381,-1.112525 3.75949,-2.494552 5.02437,-5.011144 0.89654,-1.783727 1.01291,-2.310413 0.95456,-4.32 -0.0876,-3.017079 -1.48216,-5.941889 -3.71546,-7.792467 C 101.91383,9.5951402 105.45796,9.7698794 58.72,9.667225 28.879826,9.6016845 16.057279,9.6774355 15.04,9.9252714 11.632389,10.755455 8.7600435,13.445547 7.6327866,16.86249 c -0.7571261,2.295001 -0.747986,3.706223 0.038815,5.993101 1.4328563,4.164669 3.8060494,6.05831 8.9902074,7.173552 l 2.523727,0.542917 2.915851,3.353969 c 1.603718,1.844685 3.704271,4.253971 4.667896,5.353971 1.731135,1.976131 2.706857,2.445786 3.214816,1.547421 z M 79.218406,27.120572 c -1.917116,-0.506455 -4.14326,-2.893208 -4.643523,-4.978534 -0.609165,-2.539277 -0.01635,-4.571043 1.889879,-6.477276 2.841494,-2.841494 6.472528,-2.837947 9.319577,0.0091 1.896592,1.896592 2.488855,3.933431 1.880778,6.468173 -0.533235,2.222782 -2.705639,4.460674 -4.85568,5.00206 -1.709053,0.430345 -1.877136,0.429244 -3.591031,-0.02353 z m 4.802743,-1.676049 C 84.92623,24.91411 85.602029,24.18736 86.049264,23.263491 88.001814,19.230064 85.39968,14.72 81.12,14.72 c -4.276378,0 -6.881866,4.509958 -4.932211,8.537401 1.37023,2.830521 5.004169,3.845139 7.83336,2.187122 z m -48.642743,1.356049 c -1.917116,-0.506455 -4.143261,-2.893208 -4.643523,-4.978534 -0.609164,-2.539277 -0.01635,-4.571043 1.889879,-6.477276 2.841494,-2.841494 6.472528,-2.837947 9.319577,0.0091 1.896592,1.896592 2.488855,3.933431 1.880778,6.468173 -0.533235,2.222782 -2.705639,4.460674 -4.85568,5.00206 -1.709053,0.430345 -1.877136,0.429244 -3.591031,-0.02353 z m 4.802743,-1.676049 c 3.566925,-2.090356 3.566925,-7.83869 0,-9.929046 C 36.334349,12.9411 31.68,15.659158 31.68,20.16 c 0,4.505073 4.65073,7.221019 8.501149,4.964523 z m 16.957257,1.676049 c -1.917116,-0.506455 -4.14326,-2.893208 -4.643523,-4.978534 -0.609165,-2.539277 -0.01635,-4.571043 1.889879,-6.477276 2.841494,-2.841494 6.472528,-2.837947 9.319577,0.0091 1.896592,1.896592 2.488855,3.933431 1.880778,6.468173 -0.533235,2.222782 -2.705639,4.460674 -4.85568,5.00206 -1.709053,0.430345 -1.877136,0.429244 -3.591031,-0.02353 z m 4.802743,-1.676049 c 3.566925,-2.090356 3.566925,-7.83869 0,-9.929046 C 58.094349,12.9411 53.44,15.659158 53.44,20.16 c 0,4.505073 4.65073,7.221019 8.501149,4.964523 z"
         id="path14" />
    </g>
  </g>
</svg>
